<svg width="136" height="20" viewBox="0 0 136 20" fill="none" xmlns="http://www.w3.org/2000/svg">
<path d="M0 15.2344V13.5254L1.51367 13.2324V3.02734L0 2.73438V1.01562H4.4043L10.5957 10.8789L10.6543 10.8691V3.02734L8.83789 2.73438V1.01562H14.7266V2.73438L13.2031 3.02734V15.2344H10.4492L4.12109 5.46875L4.0625 5.47852V13.2324L5.88867 13.5254V15.2344H0ZM20.791 15.4395C19.7754 15.4395 18.89 15.2181 18.1348 14.7754C17.3861 14.3262 16.8034 13.7109 16.3867 12.9297C15.9766 12.1484 15.7715 11.2565 15.7715 10.2539V9.86328C15.7715 8.8151 15.9668 7.88737 16.3574 7.08008C16.748 6.26628 17.2982 5.62826 18.0078 5.16602C18.724 4.69727 19.5671 4.46615 20.5371 4.47266C21.9629 4.47266 23.0534 4.89258 23.8086 5.73242C24.5638 6.56576 24.9414 7.73763 24.9414 9.24805V10.8008H18.7305L18.7109 10.8594C18.763 11.556 18.9941 12.1289 19.4043 12.5781C19.8145 13.0273 20.3971 13.252 21.1523 13.252C21.6732 13.252 22.1582 13.1868 22.6074 13.0566C23.0632 12.9199 23.5059 12.7214 23.9355 12.4609L24.707 14.2188C24.2708 14.5703 23.7207 14.8633 23.0566 15.0977C22.3991 15.3255 21.6439 15.4395 20.791 15.4395ZM18.75 8.91602H22.2754V8.66211C22.2754 8.02409 22.1419 7.51953 21.875 7.14844C21.6146 6.77083 21.1849 6.58203 20.5859 6.58203C20.013 6.58203 19.5768 6.80013 19.2773 7.23633C18.9779 7.66602 18.7923 8.20964 18.7207 8.86719L18.75 8.91602ZM29.7168 15.2344L27.2559 6.62109L25.9668 6.38672V4.66797H31.0742V6.37695L29.9609 6.5918L30.9375 10.7031L31.1328 11.5137H31.1914L31.4551 10.7031L33.623 4.66797H35.5371L37.6367 10.7812L37.9102 11.6406H37.9688L38.2227 10.7812L39.375 6.60156L38.1445 6.37695V4.66797H43.1445V6.38672L41.9141 6.62109L39.2285 15.2344H36.8262L34.8926 10L34.5508 8.83789H34.4922L34.1504 10.0098L32.2461 15.2344H29.7168ZM48.584 15.4395C47.7962 15.4395 47.0605 15.3646 46.377 15.2148C45.6999 15.0651 45.0488 14.8503 44.4238 14.5703L44.3945 11.582H46.377L46.7578 13.1055C46.9792 13.2161 47.2201 13.304 47.4805 13.3691C47.7474 13.4342 48.0501 13.4668 48.3887 13.4668C49.0267 13.4668 49.4759 13.3626 49.7363 13.1543C49.9967 12.946 50.127 12.6855 50.127 12.373C50.127 12.0801 49.987 11.8229 49.707 11.6016C49.4271 11.3737 48.877 11.1751 48.0566 11.0059C46.8001 10.7454 45.8757 10.3418 45.2832 9.79492C44.6973 9.24805 44.4043 8.54818 44.4043 7.69531C44.4043 7.11589 44.5508 6.58203 44.8438 6.09375C45.1432 5.60547 45.5957 5.2181 46.2012 4.93164C46.8132 4.63867 47.5944 4.49219 48.5449 4.49219C49.3392 4.49219 50.0651 4.57031 50.7227 4.72656C51.3867 4.8763 51.9434 5.07487 52.3926 5.32227L52.4219 8.21289H50.4492L50.1465 6.82617C49.7689 6.56576 49.2936 6.43555 48.7207 6.43555C48.2259 6.43555 47.8418 6.53971 47.5684 6.74805C47.3014 6.94987 47.168 7.20703 47.168 7.51953C47.168 7.79297 47.2852 8.04036 47.5195 8.26172C47.7604 8.47656 48.2845 8.67513 49.0918 8.85742C50.4004 9.1569 51.3542 9.55729 51.9531 10.0586C52.5521 10.5534 52.8516 11.25 52.8516 12.1484C52.8516 13.1315 52.4935 13.9258 51.7773 14.5312C51.0677 15.1367 50.0033 15.4395 48.584 15.4395ZM54.082 15.2344V13.5254L55.5957 13.2324V3.02734L54.082 2.73438V1.01562H65.1172V4.85352H62.9297L62.8027 3.21289H58.4473V6.78711H63.2617V8.98438H58.4473V13.0469H63.0371L63.1641 11.3477H65.332V15.2344H54.082ZM66.6016 15.2344V13.5254L67.959 13.3496L70.9863 9.94141L68.125 6.55273L66.8457 6.38672V4.66797H72.0801V6.30859L71.2598 6.43555L72.793 8.44727L74.3262 6.43555L73.418 6.30859V4.66797H78.4668V6.38672L77.2852 6.55273L74.5801 9.82422L77.5977 13.3496L78.8965 13.5254V15.2344H73.4766V13.6035L74.3945 13.4766L72.7637 11.4551L71.1719 13.4863L72.0703 13.6035V15.2344H66.6016ZM79.7461 19.2969V17.5781L81.123 17.2852V6.67969L79.5996 6.38672V4.66797H83.7402L83.877 5.89844C84.1895 5.44271 84.5671 5.09115 85.0098 4.84375C85.4525 4.59635 85.9798 4.47266 86.5918 4.47266C87.4447 4.47266 88.1738 4.70703 88.7793 5.17578C89.3848 5.63802 89.847 6.28581 90.166 7.11914C90.4915 7.95247 90.6543 8.92578 90.6543 10.0391V10.2441C90.6543 11.2858 90.4915 12.1973 90.166 12.9785C89.8405 13.7533 89.3717 14.3587 88.7598 14.7949C88.1543 15.2246 87.4251 15.4395 86.5723 15.4395C85.459 15.4395 84.5898 15.0358 83.9648 14.2285V17.2852L85.3418 17.5781V19.2969H79.7461ZM85.7227 13.252C86.4518 13.252 86.9792 12.9818 87.3047 12.4414C87.6367 11.901 87.8027 11.1686 87.8027 10.2441V10.0391C87.8027 9.04297 87.6335 8.23568 87.2949 7.61719C86.9564 6.9987 86.4258 6.68945 85.7031 6.68945C84.9089 6.68945 84.3294 7.02799 83.9648 7.70508V12.334C84.3229 12.946 84.9089 13.252 85.7227 13.252ZM91.5723 15.2344V13.5254L92.9492 13.2324V2.01172L91.4258 1.71875V0H95.8008V13.2324L97.1777 13.5254V15.2344H91.5723ZM102.959 15.4395C101.911 15.4395 101.012 15.2116 100.264 14.7559C99.5215 14.3001 98.9518 13.6686 98.5547 12.8613C98.1576 12.0475 97.959 11.1133 97.959 10.0586V9.85352C97.959 8.80534 98.1576 7.8776 98.5547 7.07031C98.9518 6.25651 99.5215 5.62174 100.264 5.16602C101.012 4.70378 101.904 4.47266 102.939 4.47266C103.981 4.47266 104.873 4.70052 105.615 5.15625C106.364 5.61198 106.937 6.24674 107.334 7.06055C107.731 7.86784 107.93 8.79883 107.93 9.85352V10.0586C107.93 11.1133 107.731 12.0475 107.334 12.8613C106.937 13.6686 106.367 14.3001 105.625 14.7559C104.883 15.2116 103.994 15.4395 102.959 15.4395ZM102.959 13.252C103.695 13.252 104.232 12.959 104.57 12.373C104.915 11.7871 105.088 11.0156 105.088 10.0586V9.85352C105.088 8.91602 104.915 8.15104 104.57 7.55859C104.225 6.96615 103.682 6.66992 102.939 6.66992C102.197 6.66992 101.657 6.96615 101.318 7.55859C100.98 8.15104 100.811 8.91602 100.811 9.85352V10.0586C100.811 11.0221 100.98 11.7969 101.318 12.3828C101.657 12.9622 102.204 13.252 102.959 13.252ZM109.424 15.2344V13.5254L110.791 13.2324V6.67969L109.277 6.38672V4.66797H113.447L113.555 5.97656L113.574 6.21094C114.095 5.05208 114.876 4.47266 115.918 4.47266C116.087 4.47266 116.27 4.48568 116.465 4.51172C116.667 4.53776 116.849 4.57682 117.012 4.62891L116.709 7.25586L115.293 7.17773C114.889 7.1582 114.561 7.22656 114.307 7.38281C114.059 7.53906 113.838 7.76367 113.643 8.05664V13.2324L115.01 13.5254V15.2344H109.424ZM122.725 15.4395C121.709 15.4395 120.824 15.2181 120.068 14.7754C119.32 14.3262 118.737 13.7109 118.32 12.9297C117.91 12.1484 117.705 11.2565 117.705 10.2539V9.86328C117.705 8.8151 117.9 7.88737 118.291 7.08008C118.682 6.26628 119.232 5.62826 119.941 5.16602C120.658 4.69727 121.501 4.46615 122.471 4.47266C123.896 4.47266 124.987 4.89258 125.742 5.73242C126.497 6.56576 126.875 7.73763 126.875 9.24805V10.8008H120.664L120.645 10.8594C120.697 11.556 120.928 12.1289 121.338 12.5781C121.748 13.0273 122.331 13.252 123.086 13.252C123.607 13.252 124.092 13.1868 124.541 13.0566C124.997 12.9199 125.439 12.7214 125.869 12.4609L126.641 14.2188C126.204 14.5703 125.654 14.8633 124.99 15.0977C124.333 15.3255 123.577 15.4395 122.725 15.4395ZM120.684 8.91602H124.209V8.66211C124.209 8.02409 124.076 7.51953 123.809 7.14844C123.548 6.77083 123.118 6.58203 122.52 6.58203C121.947 6.58203 121.51 6.80013 121.211 7.23633C120.911 7.66602 120.726 8.20964 120.654 8.86719L120.684 8.91602ZM128.408 15.2344V13.5254L129.775 13.2324V6.67969L128.262 6.38672V4.66797H132.432L132.539 5.97656L132.559 6.21094C133.079 5.05208 133.861 4.47266 134.902 4.47266C135.072 4.47266 135.254 4.48568 135.449 4.51172C135.651 4.53776 135.833 4.57682 135.996 4.62891L135.693 7.25586L134.277 7.17773C133.874 7.1582 133.545 7.22656 133.291 7.38281C133.044 7.53906 132.822 7.76367 132.627 8.05664V13.2324L133.994 13.5254V15.2344H128.408Z" fill="white"/>
</svg>
